<?xml version="1.0" standalone="no"?><!DOCTYPE svg PUBLIC "-//W3C//DTD SVG 1.1//EN" "http://www.w3.org/Graphics/SVG/1.1/DTD/svg11.dtd"><svg t="1558235650233" class="icon" style="" viewBox="0 0 1024 1024" version="1.1" xmlns="http://www.w3.org/2000/svg" p-id="1253" xmlns:xlink="http://www.w3.org/1999/xlink" width="64" height="64"><defs><style type="text/css"></style></defs><path d="M500.23817656 824.51163969h3.76378407l-3.76378407-0.62729719zM484.55574594 820.04214687a108.7576575 108.7576575 0 0 1-12.07547157-5.01837843v7.21391812a105.15069844 105.15069844 0 0 0 12.07547157 2.11712813zM419.86571937 730.73070312V518.15535406a92.60475375 92.60475375 0 0 1 14.03577563-49.00759593c-5.33202656-1.96030406-10.58564062-4.07743219-15.68243062-6.35138438A92.99681437 92.99681437 0 0 0 399.9490325 518.15535406v212.57534907a94.09458469 94.09458469 0 0 0 60.06370969 87.58637625v-10.74246563a94.09458469 94.09458469 0 0 1-40.14702281-76.84391062z" fill="#64897A" p-id="1254"></path><path d="M603.35015937 75.36192125a221.74957125 221.74957125 0 0 0-1.33300687-24.07253156A225.27811781 225.27811781 0 0 0 285.54569937 257.27811781c0 7.84121531 0.47047312 16.15290375 1.25459438 23.99411906a224.57240906 224.57240906 0 0 0 91.27174781 19.36780219A225.27811781 225.27811781 0 0 0 603.35015937 75.36192125z" fill="#1A1F1C" p-id="1255"></path><path d="M513.96030406 424.06076938a94.09458469 94.09458469 0 0 1 78.88262625 43.12668468 225.27811781 225.27811781 0 0 0 9.17422219-415.58441531 221.74957125 221.74957125 0 0 1 1.33300688 24.07253062A225.27811781 225.27811781 0 0 1 378.07204156 300.64003906 224.57240906 224.57240906 0 0 1 286.80029375 281.27223688a225.59176687 225.59176687 0 0 0 131.41877063 181.36731187c5.09679 2.27395219 10.35040406 4.39108031 15.68243062 6.35138531A94.09458469 94.09458469 0 0 1 513.96030406 424.06076938zM701.13011563 265.35456969a35.28546937 35.28546937 0 0 1-70.57093876 0 35.28546937 35.28546937 0 1 1 70.57093876 0z m-86.25336938-79.98039656h97.38789469a7.05709406 7.05709406 0 0 1 0 14.03577562H614.87674625a7.05709406 7.05709406 0 1 1 0-14.03577562z" fill="#CAE2AA" p-id="1256"></path><path d="M614.87674625 199.40994875h97.38789469a7.05709406 7.05709406 0 0 0 0-14.03577562H614.87674625a7.05709406 7.05709406 0 1 0 0 14.03577562zM666.15829438 229.99068875A35.44229344 35.44229344 0 0 0 630.55917687 265.35456969a35.28546937 35.28546937 0 0 0 70.57093875 0 35.44229344 35.44229344 0 0 0-34.97182125-35.36388094z" fill="#1A1F1C" p-id="1257"></path><path d="M472.48027438 822.23768656v-7.21391812a100.68120563 100.68120563 0 0 1-12.46753219-7.84121531v70.57093875h12.46753219z" fill="#2D441E" p-id="1258"></path><path d="M677.60646875 590.45136031a42.4993875 42.4993875 0 0 1-24.69982781-38.65719187v-3.76378407l-45.24381282 26.11124719v56.61357563z" fill="#64897A" p-id="1259"></path><path d="M513.96030406 424.06076938a94.09458469 94.09458469 0 0 0-80.05880906 45.08698875A92.60475375 92.60475375 0 0 0 419.86571937 518.15535406v212.57534907a94.09458469 94.09458469 0 0 0 40.14702282 76.84391062 100.68120563 100.68120563 0 0 0 12.46753219 7.84121531 108.7576575 108.7576575 0 0 0 12.07547156 5.01837844v-15.44719406a19.91668687 19.91668687 0 0 1 6.27297281-39.2060775H494.04361719a19.91668687 19.91668687 0 0 1 6.19455937 39.2060775V823.96275406l3.76378407 0.62729719c3.29331 0 6.58662094 0.54888469 9.95834343 0.54888562a94.09458469 94.09458469 0 0 0 70.02205313-31.36486218l-73.47218813-48.85077188a18.11320781 18.11320781 0 0 1-1.88189156-1.5682425 38.10830719 38.10830719 0 0 1-7.44915469-1.64665594A41.79367781 41.79367781 0 0 1 479.61578 667.13844687V498.23866719a26.73854438 26.73854438 0 0 1 26.66013281-26.58172031 26.42489625 26.42489625 0 0 1 9.64469531 1.88189156 26.66013188 26.66013188 0 0 1 24.69982782 26.42489625v168.97819125a41.87209031 41.87209031 0 0 1 15.68243062 32.3058075 39.20607656 39.20607656 0 0 1-1.41141843 10.19358L607.03553094 746.09948562a99.11296219 99.11296219 0 0 0 1.33300593-15.68243062V518.15535406a92.99681437 92.99681437 0 0 0-15.2119575-50.9679 94.09458469 94.09458469 0 0 0-79.19627531-43.12668469z" fill="#7EA679" p-id="1260"></path><path d="M471.85297719 701.24773344a41.71526625 41.71526625 0 0 1 15.68243062-32.3058075V499.96373469a26.66013188 26.66013188 0 0 1 26.58172032-26.66013281 14.89830938 14.89830938 0 0 1 1.96030406 0 26.42489625 26.42489625 0 0 0-9.64469531-1.88189157 26.73854438 26.73854438 0 0 0-26.66013188 26.58172032V667.13844687a41.79367781 41.79367781 0 0 0 21.56334188 73.94266032 42.02891437 42.02891437 0 0 1-29.48296969-39.83337375zM625.07032625 817.062485l-106.87576594-71.04141187a27.2090175 27.2090175 0 0 1-3.3717225-2.74442532h-0.86253375a41.00955656 41.00955656 0 0 1-5.33202656-0.54888468 18.11320781 18.11320781 0 0 0 1.88189156 1.5682425l73.47218813 48.85077187 33.32516531 22.19064a42.73462406 42.73462406 0 0 0 35.7559425 31.36486125 42.5778 42.5778 0 0 1-27.99313875-29.63979375zM666.15829438 763.11492312a39.67654969 39.67654969 0 0 1 5.33202656 0.39206063 42.02891437 42.02891437 0 0 0-13.09482938-2.27395219 42.65621156 42.65621156 0 0 0-20.62239656 5.25361406l5.0183775 3.3717225a42.65621156 42.65621156 0 0 1 23.36682188-6.743445z" fill="#1A1F1C" p-id="1261"></path><path d="M487.37858375 499.96373469v168.97819125a41.32320469 41.32320469 0 0 1 53.24185219 0V499.96373469a26.66013188 26.66013188 0 0 0-24.69982782-26.42489625 14.89830938 14.89830938 0 0 0-1.96030406 0 26.66013188 26.66013188 0 0 0-26.58172031 26.42489625z" fill="#F0BA7D" p-id="1262"></path><path d="M554.65621156 711.44131344a41.87209031 41.87209031 0 0 1-39.83337375 31.83533437 27.2090175 27.2090175 0 0 0 3.3717225 2.74442532l106.87576594 71.04141187a41.32320469 41.32320469 0 0 1-1.56824344-11.29135031 42.5778 42.5778 0 0 1 19.28938969-35.67753l-5.0183775-3.3717225-31.36486219-20.62239656z" fill="#64897A" p-id="1263"></path><path d="M514.82283781 743.27664781a41.87209031 41.87209031 0 0 0 39.83337375-31.83533437 39.20607656 39.20607656 0 0 0 1.41141938-10.19358A42.4993875 42.4993875 0 0 0 513.96030406 659.29723062a42.65621156 42.65621156 0 0 0-42.10732687 42.02891532 42.02891437 42.02891437 0 0 0 29.32614562 39.91178625 38.10830719 38.10830719 0 0 0 7.44915469 1.646655 41.00955656 41.00955656 0 0 0 5.33202656 0.54888469z" fill="#E18256" p-id="1264"></path><path d="M642.7914725 770.09360469a42.5778 42.5778 0 0 0-19.28938969 35.67753 41.32320469 41.32320469 0 0 0 1.56824344 11.29135031 42.5778 42.5778 0 0 0 27.99313875 29.32614563 42.02891437 42.02891437 0 0 0 13.09482938 2.03871562 42.65621156 42.65621156 0 0 0 5.33202656-84.9203625 39.67654969 39.67654969 0 0 0-5.33202656-0.39206062 42.65621156 42.65621156 0 0 0-23.36682188 6.97868156zM677.60646875 590.45136031a41.55844125 41.55844125 0 0 0 17.95638375 3.99901969 42.65621156 42.65621156 0 1 0-42.4993875-46.41999562v3.76378406A42.4993875 42.4993875 0 0 0 677.60646875 590.45136031z" fill="#F5E8D0" p-id="1265"></path><path d="M487.77064437 804.98701344a19.83827531 19.83827531 0 0 1 4.70472938-38.65719188h-1.646655a19.91668687 19.91668687 0 0 0-6.27297281 39.20607656v73.39377563h3.21489844z" fill="#1A1F1C" p-id="1266"></path><path d="M500.23817656 804.98701344a18.03479531 18.03479531 0 0 1-6.19455937 1.09776937 18.50526844 18.50526844 0 0 1-6.27297281-1.09776937v73.39377562h12.46753218v-73.39377562z" fill="#5E6959" p-id="1267"></path><path d="M473.73486875 786.16809594a19.83827531 19.83827531 0 0 0 13.7221275 18.8189175 18.50526844 18.50526844 0 0 0 6.27297188 1.09776937 18.03479531 18.03479531 0 0 0 6.19456031-1.09776937 19.91668687 19.91668687 0 0 0-6.19456031-39.2060775h-1.56824344a19.99509937 19.99509937 0 0 0-18.42685594 20.38716z" fill="#C5E2BD" p-id="1268"></path><path d="M371.79906875 940.16956625v-9.95834344-0.86253375a51.98725781 51.98725781 0 0 1 51.75202125-50.9679H411.00514625a51.98725781 51.98725781 0 0 0-51.83043375 50.9679v10.82087719a51.98725781 51.98725781 0 0 0 51.83043375 51.83043375h12.46753219a52.06567031 52.06567031 0 0 1-51.67360969-51.83043375z" fill="#1A1F1C" p-id="1269"></path><path d="M682.38961062 878.38078906h-258.76010812a51.98725781 51.98725781 0 0 0-51.75202125 50.9679V940.16956625a52.06567031 52.06567031 0 0 0 51.83043375 51.83043375h258.76010719a52.06567031 52.06567031 0 0 0 51.90884625-51.83043375v-9.95834344-0.86253375a51.98725781 51.98725781 0 0 0-51.98725782-50.9679z" fill="#E18256" p-id="1270"></path></svg>