<?xml version="1.0" standalone="no"?><!DOCTYPE svg PUBLIC "-//W3C//DTD SVG 1.1//EN" "http://www.w3.org/Graphics/SVG/1.1/DTD/svg11.dtd"><svg t="1558235767254" class="icon" style="" viewBox="0 0 1024 1024" version="1.1" xmlns="http://www.w3.org/2000/svg" p-id="4985" xmlns:xlink="http://www.w3.org/1999/xlink" width="64" height="64"><defs><style type="text/css"></style></defs><path d="M656.886298 560.2874c33.258076-38.95946 54.638267-117.353496 54.638267-117.353496s21.855307-17.104153 24.705999-24.230884c2.850692-7.601846-1.900461-13.778346-6.1765-18.529499-4.276038-4.276038-14.728576 4.751154-17.579268 6.651615l-22.805538-0.475115-25.181114-0.475116 25.656229 0.475116 15.678808-34.683422v-14.253461l-80.769613 5.226269S383.694961 351.236638 380.369153 347.435715c-3.325808-3.800923-61.764998 20.429961-61.764998 20.429961V394.472137l-17.104153-0.475116c-6.1765-3.800923-13.30323-4.751154-13.30323-4.751153l-3.325808 3.800923c-3.325808 3.800923-2.375577 19.004615 0 25.656229s38.009229 26.131345 38.00923 26.131346 22.330422 78.394036 49.411998 110.701881c22.805538 27.556691 72.217536 37.534114 105.475612 41.335037-0.950231 4.276038-2.375577 10.452538-5.226269 14.728576-0.950231-0.950231-1.900461-1.900461-2.375577-1.900461-5.226269-2.850692-18.529499-4.276038-18.5295-4.276039l-30.407383-4.276038s-15.678807 0.475115-25.65623 12.828115c-10.452538 13.30323-57.013844 100.724458-61.764998 120.204188s-21.855307 76.493574-21.855307 76.493575 0.950231 6.1765-12.353 11.402768c-7.126731 7.126731-10.927653 17.104153-10.927653 19.47973s2.850692 9.977423 10.452538 15.203692c8.076961 5.226269 13.30323 13.778346 15.678807 16.153923 2.850692 2.375577 11.877884 2.375577 13.303231 0s9.977423-5.226269 9.027192-10.927654 6.1765-20.905076 7.12673-21.855307c0.950231-0.950231 45.611075-95.023074 45.611076-95.023073l21.855306-38.484345s5.226269 20.905076 1.425347 38.95946c-3.325808 18.054384-7.601846 66.041036 16.153922 65.565921s6.1765-1.900461 6.1765-1.900462l174.36734 1.425347s-15.678807-57.964075-18.054384-69.84196 4.751154-18.529499 4.751154-18.529499l37.058999 38.484345s1.425346 0.475115 15.678807 14.728576 27.081576 43.710614 27.081576 43.710614-4.276038 22.805538-9.027192 26.131345 1.900461 5.701384 3.325807 4.276039 8.552077-7.126731 8.552077-7.126731 18.529499 24.705999 21.380192 25.181115 9.502307 3.325808 11.402768-0.475116l1.900462-3.800923s22.805538-13.778346 22.330422-20.42996-8.552077-17.579269-14.253461-20.429961-14.728576-23.280653-15.203692-28.506922c-0.475115-5.226269-22.330422-69.366844-22.330422-69.366844s-44.660845-104.050266-46.561306-105.000497c-1.900461-0.475115-23.755768-13.778346-29.932268-16.153922s-30.407384 0-30.407384 0-8.552077 4.751154-10.452538 5.701384l-4.751154-11.402769c30.407384-2.850692 74.117998-13.778346 94.547959-37.534114z" fill="#FFE4BF" p-id="4986"></path><path d="M297.223964 367.865676s20.905076 70.317075 25.181114 76.96869c4.276038 6.651615 12.353-13.30323 15.678807-20.905077 3.325808-7.601846-2.375577-38.009229-2.375577-38.009229l-38.484344-18.054384zM736.70568 371.191484S702.972488 436.282289 697.746219 441.983673c-5.226269 5.701384-9.502307-15.678807-11.402768-23.755768s7.601846-30.882499 7.601845-30.882499l42.760384-16.153922z" fill="" p-id="4987"></path><path d="M291.522579 287.571179c101.674689 23.755768 204.299608 38.009229 309.300105 26.60646 45.611075-4.751154 89.796805-13.778346 133.507419-27.556691 3.325808-1.425346 7.601846-6.1765 7.601846-9.502307-0.475115-24.230884 0-47.986652-3.800923-71.742421-11.402769-75.068228-50.362229-131.606957-118.778842-166.290379-21.380192-10.927653-21.855307-10.452538-28.031807 12.352999-17.104153 63.190344-23.280653 127.330919-23.755769 192.421725v44.660844H460.188535c-1.425346-87.421228-14.728576-171.991763-32.78296-256.562299H423.129536c-1.900461 0-3.325808 0.475115-4.751153 0.950231-51.31246 19.004615-90.27192 52.737806-113.077458 103.57515-19.004615 42.285268-24.705999 87.421228-28.031807 133.032304-0.950231 11.877884 3.800923 15.678807 14.253461 18.054384z" fill="#108DE6" p-id="4988"></path><path d="M460.66365 190.647643c3.325808 26.131345 3.325808 52.737806 5.226269 78.869152 0.475115 5.226269-0.475115 11.402769 8.076962 11.402769h83.620305c1.425346-30.882499 1.900461-60.339652 2.850692-89.796805 3.325808-51.787575 9.977423-102.62492 25.181114-152.036918 5.226269-17.579269 1.900461-25.181115-14.728576-32.307845-5.701384-2.375577-12.353-4.751154-19.004615-5.226269C526.704687 0.601496 501.523572-0.348735 476.342458 0.126381c-9.027192 0-18.529499 3.325808-26.606461 7.601846-14.253461 7.601846-16.153923 14.728576-13.30323 30.882499 8.552077 50.362229 17.104153 101.199574 24.230883 152.036917zM763.787256 327.955985c-4.276038-6.1765-10.927653-12.353-20.905077-9.027192-51.31246 18.054384-104.525381 28.031807-158.688533 32.78296-54.638267 4.751154-108.801419 3.800923-163.439687-2.375576-49.411998-5.701384-97.873766-15.678807-144.910187-31.357615-3.325808-0.950231-9.502307 0.950231-11.877884 3.800923-10.452538 11.402769-9.502307 24.705999 5.226269 33.733191 19.004615 11.402769 39.909691 22.330422 61.289882 28.506923 58.914306 17.579269 119.729073 20.905076 181.018956 19.954845 0 0.950231 0.475115 1.900461 0 1.900461 48.461768-3.800923 96.923535-7.126731 145.385303-12.828114 30.882499-3.325808 60.814767-10.452538 87.421227-26.606461 8.552077-4.751154 16.153923-12.828115 21.380192-20.905076 2.850692-3.800923 0.950231-12.828115-1.900461-17.579269z" fill="#108DE6" p-id="4989"></path><path d="M275.368657 309.901601c57.013844 19.47973 115.92815 30.407384 175.792686 35.158537 50.362229 3.800923 100.724458 3.325808 150.611572-2.375577 48.936883-5.701384 96.923535-15.203692 143.009726-32.78296 11.877884-4.276038 12.353-7.126731 5.701384-19.954845-160.588995 53.688037-321.653105 40.859922-482.717214-0.475116-4.276038 10.927653-2.850692 16.629038 7.601846 20.429961z" fill="#108DE6" p-id="4990"></path><path d="M628.379376 756.985163s31.357614-4.276038 57.013844-29.932268c9.502307-9.502307 1.425346-9.027192 1.425346-9.027192s-3.325808 0.950231-6.1765-3.800923c-1.425346-2.375577-34.208307-87.896343-44.660845-97.398651-9.502307-8.076961-32.307845-15.678807-40.859921-15.678807s-13.30323 0.950231-13.303231 0.950231-13.778346 5.226269-14.728576 7.12673c-0.950231 1.900461-24.705999 37.058999-48.461768 35.158537s-43.235499-32.78296-49.411998-35.158537c-6.1765-2.375577-20.905076-5.226269-23.755768-5.226269-3.325808 0-31.83273-8.076961-43.710614 3.800923-14.253461 9.502307-64.61569 111.652112-66.516152 117.828612 0 0-10.452538-1.900461-7.12673 1.900461 3.800923 3.800923 23.755768 34.683422 58.914305 33.258076l0.950231-8.552077 27.556691-30.882499 8.076962 1.425346h169.141071l35.633653 30.882499v3.325808z" fill="#00658A" p-id="4991"></path><path d="M435.957651 1014.022577a77.91892 9.977423 0 1 0 155.837841 0 77.91892 9.977423 0 1 0-155.837841 0Z" fill="#CCCCCC" p-id="4992"></path><path d="M496.297303 993.117501c8.076961 0 8.076961 0 8.552077 8.076961 0 2.850692 0.950231 5.701384 1.425346 8.552077 0.475115 3.325808-0.950231 5.226269-4.276038 5.701384-4.276038 0.475115-9.027192 0.475115-13.303231 0-4.751154-0.475115-5.701384-2.850692-3.800923-7.12673 0.950231-1.900461 2.375577-4.276038 2.850692-6.1765 0.475115-0.950231 0.475115-2.375577 0.475116-3.325808 0-5.701384 0-5.701384 5.701384-5.701384h2.375577zM516.727264 1007.370962c0.475115-3.800923 0.950231-7.126731 0.950231-10.927653 0-2.375577 0.950231-3.325808 3.325807-3.325808h9.502308c2.850692 0 5.226269 2.375577 4.751153 4.751154-0.475115 4.751154 1.425346 9.027192 3.800923 12.828115s0.950231 6.1765-3.325807 7.12673c-2.850692 0.475115-10.927653-0.950231-15.678807-1.425346-1.425346 0-2.375577-0.950231-3.325808-1.900461 0-0.475115-0.475115 0 0.475115 1.425346 2.850692 0.950231-1.900461 0.475115-0.475115-8.552077z" fill="" p-id="4993"></path><path d="M358.513846 888.117005c-6.651615-9.502307-18.529499-14.728576-20.429961-28.982038 8.076961 9.502307 15.678807 18.529499 22.805538 27.081576-0.475115 0.475115-1.425346 0.950231-2.375577 1.900462zM678.741605 854.858929c2.850692 2.850692 5.701384 4.751154 8.076961 7.12673-2.375577 2.375577-5.226269 5.226269-8.552077 8.076962-11.877884-4.751154-4.276038-9.502307 0.475116-15.203692z" fill="#FFFFFF" p-id="4994"></path><path d="M618.401953 775.514662c0-17.579269 0-33.258076-4.751154-50.362229-0.950231-3.325808-2.375577-5.226269-4.276038-6.651615h2.375577v-33.733191h-0.950231v-58.914306c0-27.556691-6.1765-26.606461-28.506922-25.181114v81.244728h-0.950231v10.927653c0-1.425346 0-2.850692-0.475115-4.276038H445.935074c-0.475115 6.651615-1.900461 12.353-1.425346 18.529499 0 2.375577 0 4.276038-0.475115 5.701385l-0.475116-21.380192v-74.117998c0-6.1765-4.276038-15.203692-11.402769-15.203691-7.601846 0-17.104153 2.375577-17.579268 15.678807-0.475115 23.280653 0 46.086191 0 67.941498h-0.475116v35.158537c-1.425346 1.900461-1.900461 4.276038-2.850692 6.651615-2.375577 16.629038-4.276038 29.932268-5.226269 46.086191-0.475115 6.651615 0.475115 11.877884 0.475115 15.678807 2.850692 34.208307 8.552077 49.887114 16.153923 77.91892 1.425346 7.126731 3.325808 11.877884 4.751154 17.579269 8.552077 33.258076 47.511537 111.176996 55.113382 113.077458 1.425346 0.475115 4.751154 1.425346 7.126731 1.425346 5.701384-0.475115 18.529499 4.276038 16.153922-23.280653-2.375577-26.606461-3.800923-36.108768-5.701384-70.317075-0.475115-8.076961-0.475115-17.104153 4.276038-17.579268 5.701384-0.475115 6.651615-0.950231 6.1765-0.950231h6.1765c8.552077-0.475115 12.828115 8.076961 10.927653 17.104153-8.552077 36.108768-9.502307 54.163152-11.402768 82.670074-1.425346 21.380192 12.828115 17.104153 12.828115 17.104154l9.027192-1.425347 1.900461-1.900461c9.027192-16.629038 39.434576-69.841959 51.31246-106.425843 2.375577-7.126731 2.375577-6.651615 2.375577-7.12673 2.375577-8.552077 7.126731-14.253461 10.452538-22.805538 3.800923-10.452538 6.1765-18.054384 8.076961-25.65623 3.800923-14.728576 6.1765-29.932268 6.1765-45.611075v-17.579269z m-32.307845-62.240113v-26.606461l20.905076 2.375577v25.181115h-20.429961c0-0.475115-0.475115-0.950231-0.475115-0.950231z m-147.285765-20.905076l0.475116 23.755768c-1.425346 0.475115-3.800923 0.475115-6.1765 0.475116-2.850692-0.475115-6.1765 0.950231-9.502307 0.475115-1.900461-0.475115-3.325808-0.475115-4.751154 0v-26.606461l19.954845 1.900462z" fill="#002035" p-id="4995"></path><path d="M516.252149 783.116508c23.280653 0 46.086191 0.475115 69.366843 0 9.502307 0 11.877884 3.800923 10.452538 13.30323-2.850692 25.65623-19.47973 47.511537-45.13596 50.36223-24.230884 2.850692-48.461768 2.850692-72.217536 0-24.230884-2.850692-38.95946-20.905076-43.710613-47.036422-2.850692-14.253461-1.425346-16.153923 11.877884-16.153923 23.280653-0.475115 46.561306-0.475115 69.366844-0.475115z" fill="#00294A" p-id="4996"></path><path d="M385.120307 755.084701c-22.805538 0-49.887114-24.705999-51.31246-25.65623-0.950231-0.950231-0.950231-2.375577 0-3.325807 0.950231-0.950231 2.375577-0.950231 3.325808 0 0.475115 0.475115 28.506922 25.65623 49.411998 24.705999 1.425346 0 2.375577 0.950231 2.375577 2.375577s-0.950231 2.375577-2.375577 2.375577c0-0.475115-0.475115-0.475115-1.425346-0.475116zM626.478914 754.134471c-0.950231 0-1.900461-0.475115-2.375577-1.900462-0.475115-1.425346 0.475115-2.375577 1.425346-2.850692 50.837344-14.253461 54.163152-31.83273 54.163152-32.307845 0-1.425346 1.425346-2.375577 2.850693-1.900462 1.425346 0 2.375577 1.425346 1.900461 2.850693 0 0.950231-3.325808 20.905076-57.964075 36.108768 0.475115 0 0 0 0 0z" fill="#FFFFFF" p-id="4997"></path><path d="M464.939689 513.726094H579.917608c4.276038 0 7.126731 4.751154 5.226269 8.552077-7.601846 15.203692-28.031807 45.611075-62.715229 45.611075s-54.638267-30.407384-62.715228-45.611075c-1.900461-4.276038 0.950231-8.552077 5.226269-8.552077z" fill="#FFB57F" p-id="4998"></path><path d="M414.403147 454.180022a28.031807 20.905076 79.88 1 0 41.159666-7.346477 28.031807 20.905076 79.88 1 0-41.159666 7.346477Z" fill="" p-id="4999"></path><path d="M586.827359 473.652419a20.905076 28.031807 10.12 1 0 9.850958-55.191371 20.905076 28.031807 10.12 1 0-9.850958 55.191371Z" fill="" p-id="5000"></path><path d="M436.907882 441.033443a4.751154 2.375577 90 1 0 4.751154 0 4.751154 2.375577 90 1 0-4.751154 0Z" fill="" p-id="5001"></path><path d="M434.532305 441.033443a7.126731 4.751154 90 1 0 9.502308 0 7.126731 4.751154 90 1 0-9.502308 0Z" fill="#FFFFFF" p-id="5002"></path><path d="M585.143877 438.182751a4.276038 3.325808 90 1 0 6.651615 0 4.276038 3.325808 90 1 0-6.651615 0Z" fill="#FFFFFF" p-id="5003"></path><path d="M588.469685 444.834366c-3.325808 0-5.701384-2.850692-5.701385-6.651615s2.375577-6.651615 5.701385-6.651616 5.701384 2.850692 5.701384 6.651616-2.375577 6.651615-5.701384 6.651615z m0-8.552077c-0.475115 0-0.950231 0.950231-0.950231 1.900462 0 2.375577 1.900461 2.375577 1.900461 0 0-0.950231-0.475115-1.900461-0.95023-1.900462z" fill="#FFFFFF" p-id="5004"></path></svg>